HIERARCHY
ROOT Hips
{
	OFFSET	0.00	0.00	0.00
	CHANNELS 6 Xposition Yposition Zposition Zrotation Xrotation Yrotation
	JOINT LeftUpLeg
	{
		OFFSET	 0.126116	-0.014019	-0.065224
		CHANNELS 3 Zrotation Xrotation Yrotation
		JOINT LeftLeg
		{
			OFFSET	 0.000000	 0.000000	 0.569914
			CHANNELS 3 Zrotation Xrotation Yrotation
			JOINT LeftFoot
			{
				OFFSET	 0.000000	 0.000000	 0.544423
				CHANNELS 3 Zrotation Xrotation Yrotation
				JOINT LeftToeBase
				{
					OFFSET	 0.000000	 0.000000	 0.207117
					CHANNELS 3 Zrotation Xrotation Yrotation
					End Site
					{
						OFFSET	 0.000000	 0.000000	 0.207117
					}
				}
			}
		}
	}
	JOINT RightUpLeg
	{
		OFFSET	-0.124023	-0.008373	-0.065224
		CHANNELS 3 Zrotation Xrotation Yrotation
		JOINT RightLeg
		{
			OFFSET	 0.000000	 0.000000	 0.570047
			CHANNELS 3 Zrotation Xrotation Yrotation
			JOINT RightFoot
			{
				OFFSET	 0.000000	 0.000000	 0.544354
				CHANNELS 3 Zrotation Xrotation Yrotation
				JOINT RightToeBase
				{
					OFFSET	 0.000000	 0.000000	 0.207540
					CHANNELS 3 Zrotation Xrotation Yrotation
					End Site
					{
						OFFSET	 0.000000	 0.000000	 0.207540
					}
				}
			}
		}
	}
	JOINT Spine
	{
		OFFSET	 0.000184	-0.007763	 0.117403
		CHANNELS 3 Zrotation Xrotation Yrotation
		JOINT Spine1
		{
			OFFSET	 0.000000	 0.000000	 0.137269
			CHANNELS 3 Zrotation Xrotation Yrotation
			JOINT Spine2
			{
				OFFSET	 0.000000	 0.000000	 0.156879
				CHANNELS 3 Zrotation Xrotation Yrotation
				JOINT LeftShoulder
				{
					OFFSET	 0.080501	-0.002496	 0.160144
					CHANNELS 3 Zrotation Xrotation Yrotation
					JOINT LeftArm
					{
						OFFSET	 0.000000	 0.000000	 0.164363
						CHANNELS 3 Zrotation Xrotation Yrotation
						JOINT LeftForeArm
						{
							OFFSET	 0.000000	 0.000000	 0.364576
							CHANNELS 3 Zrotation Xrotation Yrotation
							JOINT LeftHand
							{
								OFFSET	 0.000000	 0.000000	 0.360812
								CHANNELS 3 Zrotation Xrotation Yrotation
								JOINT LeftHandIndex1
								{
									OFFSET	 0.000000	 0.000000	 0.086006
									CHANNELS 3 Zrotation Xrotation Yrotation
									JOINT LeftHandIndex2
									{
										OFFSET	 0.000000	 0.000000	 0.047236
										CHANNELS 3 Zrotation Xrotation Yrotation
										JOINT LeftHandIndex3
										{
											OFFSET	-0.004284	-0.000551	 0.038166
											CHANNELS 3 Zrotation Xrotation Yrotation
											End Site
											{
												OFFSET	-0.004284	-0.000551	 0.038166
											}
										}
									}
								}
							}
						}
					}
				}
				JOINT Neck
				{
					OFFSET	 0.000000	 0.000000	 0.176489
					CHANNELS 3 Zrotation Xrotation Yrotation
					JOINT Head
					{
						OFFSET	 0.000000	-0.001747	 0.077940
						CHANNELS 3 Zrotation Xrotation Yrotation
						End Site
						{
							OFFSET	 0.000000	-0.001747	 0.077940
						}
					}
				}
				JOINT RightShoulder
				{
					OFFSET	-0.080363	 0.000306	 0.159706
					CHANNELS 3 Zrotation Xrotation Yrotation
					JOINT RightArm
					{
						OFFSET	 0.000000	 0.000000	 0.164196
						CHANNELS 3 Zrotation Xrotation Yrotation
						JOINT RightForeArm
						{
							OFFSET	 0.000000	 0.000000	 0.365611
							CHANNELS 3 Zrotation Xrotation Yrotation
							JOINT RightHand
							{
								OFFSET	 0.000000	 0.000000	 0.360648
								CHANNELS 3 Zrotation Xrotation Yrotation
								JOINT RightHandIndex1
								{
									OFFSET	 0.000000	 0.000000	 0.069977
									CHANNELS 3 Zrotation Xrotation Yrotation
									JOINT RightHandIndex2
									{
										OFFSET	 0.000000	 0.000000	 0.052305
										CHANNELS 3 Zrotation Xrotation Yrotation
										JOINT RightHandIndex3
										{
											OFFSET	 0.009002	-0.000782	 0.042196
											CHANNELS 3 Zrotation Xrotation Yrotation
											End Site
											{
												OFFSET	 0.009002	-0.000782	 0.042196
											}
										}
									}
								}
							}
						}
					}
				}
			}
		}
	}
}
MOTION
Frames:    4
Frame Time: 0.03333334
-0.056361	 2.692436	 1.026114	-4.519687	-2.156811	-1.211351	 7.317719	 20.773480	-176.871100	-3.549391	-11.630620	 1.487459	 3.710580	 84.403990	-0.306112	-2.297654	 40.037260	-0.276622	 5.141029	-35.803550	-177.714900	 0.706959	-42.050240	 4.753604	 124.310800	 89.775310	-118.664200	 2.369415	 31.352300	 0.065480	 5.896878	 3.769319	 2.238878	 8.573627	-1.321034	 1.289131	 10.531610	-3.846214	 0.488214	-91.776180	 78.527400	-180.000000	 35.763120	 60.520560	-53.946800	-10.573990	-3.692400	-39.141480	 3.798087	-2.119921	-5.364375	-3.812334	 37.924440	-2.927599	-2.450526	 36.184240	 0.754587	-1.378229	 35.397820	-2.634230	 1.223574	 2.175314	-4.961035	 3.938111	-9.291754	 4.134656	 89.782100	 78.203870	-180.000000	-37.662270	 72.222020	 35.082000	 2.017550	-5.954978	 24.986710	-13.617480	-3.254775	 9.559690	 6.437017	 35.671460	-0.771858	 2.830251	 35.756010	-7.813440	-2.350882	 35.473990	 5.254307
-0.065974	 2.611254	 1.023307	-3.769852	-1.943279	-1.323264	 7.674565	 24.170150	-177.746400	-3.039265	-11.612590	 1.623346	 4.856812	 83.804820	-0.774053	-2.235315	 44.700550	-0.409690	 5.000424	-35.910980	-177.417500	-0.043143	-37.774700	 3.681830	 152.202500	 89.370990	-146.942200	 2.360956	 32.704390	 0.096370	 8.638146	 3.510295	 1.913854	 7.837146	-1.462757	 1.068368	 9.806408	-3.912444	 0.335741	-91.776180	 78.527420	-180.000000	 37.204390	 60.955250	-55.376750	-10.729970	-3.661848	-39.765900	 3.770422	-2.115634	-5.365242	-3.812334	 37.924440	-2.927599	-2.450526	 36.184240	 0.754587	-1.378229	 35.397820	-2.634230	 1.255113	 2.074681	-5.027877	 3.816710	-9.343652	 4.865206	 89.782070	 78.203930	-180.000000	-35.853700	 73.181910	 33.048610	 2.247056	-5.814479	 23.488890	-14.342620	-3.278957	 9.541881	 6.437017	 35.671460	-0.771858	 2.830251	 35.756010	-7.813440	-2.350882	 35.473990	 5.254307
-0.078333	 2.526633	 1.020559	-3.020692	-2.115757	-1.291511	 8.307797	 27.588280	-179.497300	-1.902241	-11.580560	 1.840193	 5.832757	 80.668430	-0.505569	-2.169045	 48.465290	-0.531317	 4.797244	-34.568540	-177.761300	 1.320422	-39.341660	 4.675103	 42.666480	 89.677360	-36.521840	 2.376383	 30.100040	 0.037465	 10.962400	 3.264066	 1.815990	 7.079821	-1.565824	 0.740685	 9.172300	-3.722528	 0.090783	-91.776180	 78.527400	-180.000000	 39.327390	 62.126470	-56.114570	-10.803540	-3.544173	-38.662570	 3.778647	-2.095708	-5.368945	-3.812334	 37.924440	-2.927599	-2.450526	 36.184240	 0.754587	-1.378229	 35.397820	-2.634230	 1.417778	 2.359761	-5.123284	 3.763578	-9.483797	 5.397042	 89.782120	 78.203870	 180.000000	-34.627560	 73.749150	 31.672990	 2.150939	-5.659704	 22.146900	-15.004240	-3.303214	 9.522333	 6.437017	 35.671460	-0.771858	 2.830251	 35.756010	-7.813440	-2.350882	 35.473990	 5.254307
-0.092769	 2.435939	 1.019023	-1.962003	-2.269687	-1.102782	 9.156363	 30.853220	 178.041200	-0.912482	-11.559690	 1.969215	 5.453753	 73.742220	 1.034155	-2.105180	 51.383940	-0.637155	 3.740787	-32.343670	-178.732100	 3.912092	-42.703410	 6.347684	 3.779290	 87.691060	 3.393522	 2.384777	 28.362150	-0.000576	 12.919000	 2.796360	 1.545694	 6.143923	-1.724054	 0.411754	 8.502423	-3.512298	-0.241693	-91.776180	 78.527400	-180.000000	 41.757710	 63.926590	-55.863720	-10.543880	-3.514332	-35.930450	 4.145825	-2.115008	-5.364687	-3.812334	 37.924440	-2.927599	-2.450526	 36.184240	 0.754587	-1.378229	 35.397820	-2.634230	 1.603760	 2.914259	-5.078375	 3.679027	-9.531350	 5.573634	 89.782110	 78.203870	 180.000000	-32.511890	 74.119380	 28.969770	 2.191121	-5.497865	 21.262130	-15.364000	-3.318049	 9.509958	 6.437017	 35.671460	-0.771858	 2.830251	 35.756010	-7.813440	-2.350882	 35.473990	 5.254307
